<?xml version="1.0" encoding="utf-8"?>
<!-- Generator: Adobe Illustrator 23.0.0, SVG Export Plug-In . SVG Version: 6.00 Build 0)  -->
<svg version="1.1" id="Layer_1" xmlns="http://www.w3.org/2000/svg" xmlns:xlink="http://www.w3.org/1999/xlink" x="0px" y="0px"
	 viewBox="0 0 2318.3 500" style="enable-background:new 0 0 2318.3 500;" xml:space="preserve">
<style type="text/css">
	.st0{fill:#C1C7D0;}
</style>
<g>
	<g>
		<path class="st0" d="M1331.1,323.5c-25-58.4-111.2-40.3-134.8-2.8v-29.2h-75.1v207.1h77.8V394.4c0-38.9,8.3-41.7,29.2-43.1
			c20.8-1.4,29.2,1.4,29.2,43.1l1.4,104.2h75.1v-107c0-19.5,4.2-37.5,25-37.5c25-1.4,30.6,1.4,30.6,32v114h79.2V345.7
			C1470.1,272.1,1365.9,270.7,1331.1,323.5z"/>
		<path class="st0" d="M986.4,276.2c-61.2,0-111.2,50-111.2,111.2s50,111.2,111.2,111.2s111.2-50,111.2-111.2
			S1047.6,276.2,986.4,276.2z M986.4,426.3c-22.2,0-38.9-18.1-38.9-38.9c0-22.2,18.1-38.9,38.9-38.9c20.8,0,38.9,18.1,38.9,38.9
			C1025.4,408.3,1007.3,426.3,986.4,426.3z"/>
		<path class="st0" d="M775.2,224.8c-15.3-6.9-30.6-12.5-47.3-13.9c-23.6-2.8-47.3-4.2-70.9-4.2h-86.2v291.9h79.2
			c26.4,0,52.8-1.4,77.8-4.2c16.7-2.8,33.4-6.9,48.6-13.9c23.6-12.5,44.5-30.6,59.8-52.8c27.8-45.9,27.8-104.2,0-150.1
			C821.1,255.4,800.2,237.3,775.2,224.8z M765.5,387.4c-5.6,9.7-13.9,19.5-25,25c-5.6,2.8-12.5,5.6-19.5,6.9
			c-11.1,1.4-20.8,2.8-32,1.4h-32V283.2h36.1c9.7,0,19.5,0,29.2,1.4c6.9,1.4,13.9,2.8,19.5,6.9c9.7,5.6,18.1,13.9,25,25
			c5.6,11.1,8.3,23.6,8.3,34.7C773.8,363.8,771,376.3,765.5,387.4z"/>
		<rect x="1502.1" y="287.4" class="st0" width="77.8" height="209.9"/>
		<path class="st0" d="M2140,245.7c2.8-12.5,2.8-26.4-2.8-37.5c-6.9-15.3-22.2-25-38.9-25c-19.5-1.4-37.5,12.5-41.7,30.6
			c-5.6,22.2,6.9,44.5,29.2,51.4c5.6,1.4,11.1,0,6.9,6.9c-4.2,5.6-9.7,11.1-15.3,15.3l8.3,12.5
			C2119.2,281.8,2135.9,263.7,2140,245.7z"/>
		<path class="st0" d="M1964.9,276.2c-61.2,0-111.2,50-111.2,111.2s50,111.2,111.2,111.2s111.2-50,111.2-111.2
			S2026.1,276.2,1964.9,276.2z M1964.9,426.3c-22.2,0-38.9-18.1-38.9-38.9c0-20.8,18.1-38.9,38.9-38.9s38.9,18.1,38.9,38.9
			C2003.8,408.3,1987.1,426.3,1964.9,426.3z"/>
		<path class="st0" d="M2227.6,358.2c-38.9,0-36.1-26.4-12.5-27.8c25-1.4,50,5.6,69.5,20.8l25-48.6
			c-68.1-40.3-183.5-34.7-186.2,38.9l0,0c-1.4,41.7,30.6,62.5,95.9,69.5c47.3,5.6,33.4,26.4,6.9,29.2c-26.4,2.8-51.4-9.7-77.8-25
			l-33.4,50c91.7,58.4,198.7,32,202.9-36.1C2322.1,388.8,2290.1,356.8,2227.6,358.2z"/>
		<path class="st0" d="M1691.1,320.7v-29.2h-75.1v207.1h75.1V394.4c0-34.7,15.3-41.7,32-43.1c20.8-2.8,36.1,1.4,36.1,43.1l1.4,104.2
			h75.1V347.1C1834.3,272.1,1720.3,272.1,1691.1,320.7z"/>
		<path class="st0" d="M1541,183.1c-23.6,0-43.1,19.5-43.1,43.1c0,23.6,19.5,43.1,43.1,43.1s43.1-19.5,43.1-43.1
			C1584.1,202.6,1564.6,183.1,1541,183.1z"/>
	</g>
	<g>
		<path class="st0" d="M494.4,151.1L348.5,5.2l0,0c-6.9-6.9-16.7-6.9-23.6,0L170.6,158.1l169.6,169.6l154.3-152.9l0,0
			C501.4,167.8,501.4,158.1,494.4,151.1z M368,190.1c-16.7,16.7-43.1,16.7-58.4,0c-16.7-16.7-16.7-43.1,0-58.4l0,0
			c16.7-16.7,43.1-16.7,58.4,0C383.3,147,383.3,173.4,368,190.1z"/>
		<path class="st0" d="M160.9,169.2L5.2,323.5l0,0l0,0c-6.9,6.9-6.9,16.7,0,23.6l145.9,145.9l0,0c6.9,6.9,16.7,6.9,23.6,0L329,340.2
			L160.9,169.2z M130.3,366.6c-16.7,15.3-43.1,15.3-58.4,0c-16.7-16.7-16.7-43.1,0-58.4s43.1-15.3,58.4,0
			C145.6,323.5,145.6,349.9,130.3,366.6z M192.8,366.6c-16.7-15.3-16.7-43.1,0-58.4l0,0c16.7-16.7,43.1-16.7,58.4,0
			c16.7,16.7,16.7,43.1,0,58.4C234.5,383.3,209.5,383.3,192.8,366.6z"/>
	</g>
</g>
</svg>
