<svg id="Logos" xmlns="http://www.w3.org/2000/svg" xmlns:xlink="http://www.w3.org/1999/xlink" viewBox="0 0 1050 150"><defs><style>.cls-1{fill:#253858;}.cls-2{fill:url(#linear-gradient);}.cls-3{fill:#2684ff;}</style><linearGradient id="linear-gradient" x1="22.91" y1="111.02" x2="31.86" y2="137.54" gradientTransform="translate(20.03 -44.62) rotate(0.35)" gradientUnits="userSpaceOnUse"><stop offset="0" stop-color="#0052cc"/><stop offset="1" stop-color="#2684ff"/></linearGradient></defs><path class="cls-1" d="M109.87,42.64h7.92V82.85c0,10.65-4.66,18-15.57,18a28.19,28.19,0,0,1-9.51-1.5V91.65a22.19,22.19,0,0,0,8.19,1.5c6.69,0,9-4.05,9-9.77Z"/><path class="cls-1" d="M132.22,39.56a4.93,4.93,0,0,1,5.28,5.28,5.28,5.28,0,0,1-10.56,0A4.94,4.94,0,0,1,132.22,39.56Zm-3.87,16.89h7.57v44h-7.57Z"/><path class="cls-1" d="M154.75,100.45h-7.39v-44h7.39V64.2c2.55-5.19,6.95-8.89,15.58-8.36v7.39c-9.68-1-15.58,1.94-15.58,11.26Z"/><path class="cls-1" d="M205.79,92.53c-2.81,5.81-8.09,8.8-14.87,8.8-11.7,0-17.6-9.94-17.6-22.88,0-12.4,6.16-22.88,18.48-22.88,6.42,0,11.35,2.91,14,8.63V56.45h7.57v44h-7.57Zm-12.85,1.76c6.78,0,12.85-4.31,12.85-14.08V76.69c0-9.76-5.54-14.08-12-14.08-8.53,0-12.93,5.64-12.93,15.84C180.89,89,185.11,94.29,192.94,94.29Z"/><path class="cls-1" d="M258.15,101.33c-11.18,0-16.37-2.2-20.85-4.48v-8.1c5.36,2.82,13.63,4.84,21.29,4.84,8.71,0,12-3.43,12-8.54s-3.17-7.83-14.17-10.47c-13-3.17-18.83-7.65-18.83-17.16,0-9,6.86-15.66,20.33-15.66,8.36,0,13.72,2,17.68,4.22V53.9a35.53,35.53,0,0,0-18-4.4c-7.56,0-12,2.64-12,7.92,0,4.75,3.69,7.13,13.9,9.68,12.23,3.08,19.1,7,19.1,17.43C278.48,94.56,272.49,101.33,258.15,101.33Z"/><path class="cls-1" d="M308.84,101.33c-16.46,0-23.67-9.5-23.67-23,0-13.29,7.39-22.8,20.76-22.8,13.55,0,19,9.42,19,22.8V81.8H292.82c1.06,7.48,5.9,12.32,16.28,12.32a38.94,38.94,0,0,0,13.38-2.38v7C318.87,100.63,313.33,101.33,308.84,101.33Zm-16.11-26h24.56c-.44-8.19-4.14-12.85-11.71-12.85C297.57,62.44,293.53,67.63,292.73,75.29Z"/><path class="cls-1" d="M341.31,100.45h-7.39v-44h7.39V64.2c2.55-5.19,6.95-8.89,15.58-8.36v7.39c-9.68-1-15.58,1.94-15.58,11.26Z"/><path class="cls-1" d="M375.54,100.45l-17.07-44h7.92L380.64,94l14.17-37.58h7.92l-17.07,44Z"/><path class="cls-1" d="M413.12,39.56a4.93,4.93,0,0,1,5.27,5.28,5.28,5.28,0,1,1-10.55,0A4.94,4.94,0,0,1,413.12,39.56Zm-3.88,16.89h7.57v44h-7.57Z"/><path class="cls-1" d="M459.31,99.31c-2.64,1.41-6.68,2-10.73,2-15.66,0-23-9.5-23-23,0-13.29,7.31-22.8,23-22.8a23.17,23.17,0,0,1,10.47,2.12v7a22.19,22.19,0,0,0-9.94-2.12c-11.44,0-16.11,7.22-16.11,15.76s4.76,15.75,16.28,15.75a27.68,27.68,0,0,0,10-1.59Z"/><path class="cls-1" d="M489,101.33c-16.46,0-23.67-9.5-23.67-23,0-13.29,7.39-22.8,20.77-22.8,13.55,0,19,9.42,19,22.8V81.8H473c1.06,7.48,5.9,12.32,16.28,12.32a38.94,38.94,0,0,0,13.38-2.38v7C499,100.63,493.46,101.33,489,101.33Zm-16.1-26h24.55c-.44-8.19-4.14-12.85-11.71-12.85C477.71,62.44,473.66,67.63,472.87,75.29Z"/><path class="cls-1" d="M539.48,47.39v53.06h-7.92V42.64h13.73L558.4,75.81l5.37,15.93,5.37-15.93,13.19-33.17h12.76v57.81h-7.92V48L580.4,68.86l-12.76,31.59H560L547.4,68.86Z"/><path class="cls-1" d="M637.6,92.53c-2.82,5.81-8.1,8.8-14.87,8.8-11.71,0-17.6-9.94-17.6-22.88,0-12.4,6.16-22.88,18.48-22.88,6.42,0,11.35,2.91,14,8.63V56.45h7.57v44H637.6Zm-12.85,1.76c6.78,0,12.85-4.31,12.85-14.08V76.69c0-9.76-5.54-14.08-12-14.08-8.53,0-12.93,5.64-12.93,15.84C612.7,89,616.92,94.29,624.75,94.29Z"/><path class="cls-1" d="M694,100.45h-7.57V73.88c0-7.92-3.17-11.44-10.38-11.44-7,0-11.88,4.66-11.88,13.55v24.46h-7.57v-44h7.57v7.22a15.42,15.42,0,0,1,13.9-8.1c10.12,0,15.93,7,15.93,19.1Z"/><path class="cls-1" d="M734.4,92.53c-2.82,5.81-8.1,8.8-14.87,8.8-11.71,0-17.6-9.94-17.6-22.88,0-12.4,6.16-22.88,18.48-22.88,6.42,0,11.35,2.91,14,8.63V56.45H742v44H734.4Zm-12.85,1.76c6.78,0,12.85-4.31,12.85-14.08V76.69c0-9.76-5.55-14.08-12-14.08-8.53,0-12.93,5.64-12.93,15.84C709.5,89,713.72,94.29,721.55,94.29Z"/><path class="cls-1" d="M783.06,92.53c-2.81,5.81-8.09,8.8-14.87,8.8-11.61,0-17.42-9.94-17.42-22.88,0-12.4,6.07-22.88,18.3-22.88,6.43,0,11.35,2.91,14,8.63V56.45h7.39v40c0,12.94-6.07,21.65-21.82,21.65A44.22,44.22,0,0,1,753,115.76v-7.39A48.41,48.41,0,0,0,768.28,111c11,0,14.78-5.89,14.78-14.08Zm-12.84,1.76c6.77,0,12.84-4.31,12.84-14.08V76.69c0-9.76-5.54-14.08-12-14.08-8.54,0-12.94,5.64-12.94,15.84C758.16,89,762.38,94.29,770.22,94.29Z"/><path class="cls-1" d="M822.93,101.33c-16.46,0-23.67-9.5-23.67-23,0-13.29,7.39-22.8,20.76-22.8,13.55,0,19,9.42,19,22.8V81.8H806.91c1.06,7.48,5.9,12.32,16.28,12.32a39,39,0,0,0,13.38-2.38v7C833,100.63,827.41,101.33,822.93,101.33Zm-16.11-26h24.55c-.44-8.19-4.13-12.85-11.7-12.85C811.66,62.44,807.61,67.63,806.82,75.29Z"/><path class="cls-1" d="M885.41,100.45h-7.57V73.88c0-7.92-3.17-11.44-10.39-11.44-7,0-11.88,4.66-11.88,13.55v24.46H848v-44h7.56v7.22a15.44,15.44,0,0,1,13.91-8.1c7.48,0,12.58,3.79,14.78,10.74,2.46-6.78,8.36-10.74,15.67-10.74,9.85,0,15.31,6.69,15.31,19.1v25.78h-7.57V76c0-9.06-3.17-13.55-10.39-13.55-7,0-11.87,4.66-11.87,13.55Z"/><path class="cls-1" d="M946.83,101.33c-16.46,0-23.67-9.5-23.67-23,0-13.29,7.39-22.8,20.77-22.8,13.55,0,19,9.42,19,22.8V81.8H930.81c1.06,7.48,5.9,12.32,16.28,12.32a38.94,38.94,0,0,0,13.38-2.38v7C956.86,100.63,951.32,101.33,946.83,101.33Zm-16.11-26h24.56c-.44-8.19-4.14-12.85-11.71-12.85C935.56,62.44,931.52,67.63,930.72,75.29Z"/><path class="cls-1" d="M1009.31,100.45h-7.57V73.88c0-7.92-3.17-11.44-10.39-11.44-7,0-11.87,4.66-11.87,13.55v24.46h-7.57v-44h7.57v7.22a15.42,15.42,0,0,1,13.9-8.1c10.12,0,15.93,7,15.93,19.1Z"/><path class="cls-1" d="M1037.29,93.33a24.26,24.26,0,0,0,4.75-.62V100a17.8,17.8,0,0,1-5.1.71c-9.42,0-14-5.55-14-13.73V63.49h-7.13v-7H1023V47.13h7.39v9.32H1042v7h-11.7V86.81C1030.34,90.69,1032.63,93.33,1037.29,93.33Z"/><path class="cls-2" d="M43.08,63.46,64,63.59a3.26,3.26,0,0,1,2.59,5.22L35.72,110a21.94,21.94,0,0,1-4.44-30.69Z"/><path class="cls-3" d="M31.27,79.27l-20.79-.13a3.26,3.26,0,0,1-2.59-5.21L38.45,33.11A21.94,21.94,0,0,1,42.89,63.8Z"/></svg>