<?xml version="1.0" encoding="utf-8"?>
<!-- Generator: Adobe Illustrator 23.0.0, SVG Export Plug-In . SVG Version: 6.00 Build 0)  -->
<svg version="1.1" xmlns="http://www.w3.org/2000/svg" xmlns:xlink="http://www.w3.org/1999/xlink" x="0px" y="0px"
	 viewBox="0 0 1414.6 500" style="enable-background:new 0 0 1414.6 500;" xml:space="preserve">
<style type="text/css">
	.st0{fill:#C1C7D0;}
</style>
<g id="Layer_1">
	<g>
		<path class="st0" d="M250.1,250V135h-87.9l0,0L115,87.8V0H0v115h87.9l47.1,47.1l0,0V223l-0.1-0.1l-47.2,47.2H0v115h115v-87.9
			l47.2-47.2H250.1z M38.3,38.3h38.3v38.3H38.3V38.3z M76.6,346.7H38.3v-38.3h38.3V346.7z"/>
		<g>
			<g id="XMLID_23_">
				<g>
					<path class="st0" d="M377.3,500h-50.7V250h50.7v15.1c8.2-9.8,26.1-19.2,45.8-19.2c53.1,0,83.3,44.1,83.3,95.6
						c0,51.5-30.2,95.2-83.3,95.2c-19.6,0-37.6-9.4-45.8-19.2V500z M377.3,371.3c6.1,12.7,19.6,21.2,34.3,21.2
						c27.4,0,43.7-22.1,43.7-51.1c0-29.4-16.3-51.5-43.7-51.5c-15.1,0-28.2,9-34.3,21.2V371.3z"/>
				</g>
				<g>
					<path class="st0" d="M690.2,432.6h-50.7v-16.8c-10.2,11.4-27.8,20.8-49,20.8c-40.9,0-64.1-27-64.1-67.4V250h50.7V359
						c0,19.2,9.4,32.3,29.4,32.3c15.5,0,29-9.4,32.7-25.3V250h51.1V432.6z"/>
				</g>
				<g>
					<path class="st0" d="M774.4,500h-50.7V250h50.7v15.1c8.2-9.8,26.1-19.2,45.8-19.2c53.1,0,83.3,44.1,83.3,95.6
						c0,51.5-30.2,95.2-83.3,95.2c-19.6,0-37.6-9.4-45.8-19.2V500z M774.4,371.3c6.1,12.7,19.6,21.2,34.3,21.2
						c27.4,0,43.7-22.1,43.7-51.1c0-29.4-16.3-51.5-43.7-51.5c-15.1,0-28.2,9-34.3,21.2V371.3z"/>
				</g>
				<g>
					<path class="st0" d="M976.2,500h-50.7V250h50.7v15.1c8.2-9.8,26.1-19.2,45.8-19.2c53.1,0,83.3,44.1,83.3,95.6
						c0,51.5-30.2,95.2-83.3,95.2c-19.6,0-37.6-9.4-45.8-19.2V500z M976.2,371.3c6.1,12.7,19.6,21.2,34.3,21.2
						c27.4,0,43.7-22.1,43.7-51.1c0-29.4-16.3-51.5-43.7-51.5c-15.1,0-28.2,9-34.3,21.2V371.3z"/>
				</g>
				<g>
					<path class="st0" d="M1287.1,372.9c-6.5,38.8-35.1,63.7-80.9,63.7c-53.1,0-88.7-38.8-88.7-95.2c0-55.2,36.8-95.6,87.8-95.6
						c53.5,0,82.9,37.2,82.9,90.7v15.5h-121.8c1.6,27.4,17.2,43.7,39.6,43.7c17.2,0,29.8-7.4,33.9-22.9H1287.1z M1167.8,321.5h70.7
						c-0.4-19.2-11.8-34.3-32.7-34.3C1186.2,287.1,1172.3,299,1167.8,321.5z"/>
				</g>
				<g>
					<path class="st0" d="M1321.4,290.8h-27.8V250h27.8v-49.4h50.3V250h40v40.9h-40v80.1c0,14.3,7.8,20.8,20.8,20.8
						c7.8,0,16.3-2.5,22.1-6.1v44.9c-6.9,3.7-19.2,5.7-32.7,5.7c-37.2,0-60.5-18.4-60.5-58.8V290.8z"/>
				</g>
			</g>
		</g>
	</g>
</g>
<g id="Layer_2">
</g>
<g id="Layer_3">
</g>
<g id="Layer_4">
</g>
</svg>
