<?xml version="1.0" encoding="utf-8"?>
<!-- Generator: Adobe Illustrator 23.0.0, SVG Export Plug-In . SVG Version: 6.00 Build 0)  -->
<svg version="1.1" id="Layer_1" xmlns="http://www.w3.org/2000/svg" xmlns:xlink="http://www.w3.org/1999/xlink" x="0px" y="0px"
	 viewBox="0 0 2077.1 500" style="enable-background:new 0 0 2077.1 500;" xml:space="preserve">
<style type="text/css">
	.st0{fill:#C1C7D0;}
</style>
<g>
	<path class="st0" d="M114.3,398.3c-26.9,0-56.1-7.3-78.1-18.5l-20.6,18.5l-9.5,0.1L0,281.3l11-1c33.8,79.3,77.2,100,106,100
		c39.5,0,62.4-20.9,62.4-59.7c0-28.7-10.7-44.2-61.5-65.8c-16.9-7.4-33.2-11.8-49.6-19.7c-37.5-18.5-59.6-46.2-59.6-88
		c0-61.3,54.8-100.1,103.4-100.1c28.7,0,45,5.7,61,14.8l4.8,2.5l20.8-18h8.8l9,103.5l-10.7,1.3c-29.2-59.9-60.5-86.3-95.5-86.3
		c-25.2,0-48.8,16.8-48.8,52.8c0,29.6,19.5,46.1,46.6,57.8c18.5,7.9,41.6,16.6,61.1,26.1c42.8,21.1,62.4,48.7,62.4,87.3
		C231.6,362.2,167.1,398.3,114.3,398.3z"/>
	<path class="st0" d="M392.2,398.9c-75,0-119.1-53.7-119.1-126.8c0-69.5,50.3-128,126.5-128c74.7,0,118.4,50.7,118.4,126.4
		C518,338.8,471.2,398.9,392.2,398.9z M395.9,158.9c-36.8,0-60.6,37.8-60.6,114.9c0,77.9,29.5,110.4,62.5,110.4
		c42.2,0,58.8-52.2,58.8-113.6C456.7,207.9,436.4,158.9,395.9,158.9z"/>
	<path class="st0" d="M715.4,372.9c-23.3,14.3-54.1,23.6-87.8,23.6c-29.9,0-52.2-16.2-49.8-65.8V180.9h-38.8v-7.6l48.2-38l38.6-50.5
		h8v68.6h79.9v27.6h-79.9v138.8c0,19,3.2,30,12,37.2c4.8,4,15.3,9.7,33.8,9.7c8.5,0,24.7,0.1,35.4-0.9L715.4,372.9z"/>
	<path class="st0" d="M925.2,244.3c1.5-36.9-12.3-59.9-45.7-59.9c-24.8,0-41.2,5.8-55.6,13.2l0.1,174.1l29.5,11.3l0,7.3l-119.1,0
		l0-7.3l33.2-11.1l-0.1-318.2L731.1,30l0.2-5.2L822,0l1.9,1.6l-0.1,184.2l2.1,1.1c22.4-19.9,50.6-42.4,87.3-42.4
		c46,0,68.6,32,68.6,74.8l-0.3,152.7l33.2,11.1l0,7.3l-119.2,0l0-7.3l29.6-11.1L925.2,244.3z"/>
	<path class="st0" d="M1092.6,253.5c-0.7,60.8,17.4,110.5,76.3,110.5c28.2,0,46.3-3.6,81.7-16.8l3.2,6.3
		c-27.9,25-66.9,46.5-106.6,45.3c-67.6-2.1-114.7-49.7-114.7-123.1c0-74,55.7-131.4,122.3-131.4c71,0,102.1,50.4,102.1,109.1
		L1092.6,253.5z M1197.7,235.6c-1.5-38.7-12.1-76.4-46.9-76.4c-32.2,0-54.2,32.4-57.9,81L1197.7,235.6z"/>
	<path class="st0" d="M1397.7,398.9c-27.5,0-60-5.5-90.1-13.8V53.7l-36.9-23.7l0.2-5.3L1362.1,0l1.9,1.7V178l2.1,1.2
		c21.3-20.7,44.9-34.7,76.6-34.7c47.9,0,95.1,43,95.1,121.2C1537.8,337.8,1484,398.9,1397.7,398.9z M1407.1,181.2
		c-16.4-0.5-30.6,3.5-43.2,8.5v167c20.1,20.3,46.8,25.6,61.3,24.3c36.2-3.3,52.5-42.1,53-99.4
		C1478.8,225.8,1459.6,182.9,1407.1,181.2z"/>
	<path class="st0" d="M1774.6,176.9l-100,247.9c-10.8,23.2-24.4,47.7-38.6,59.9c-12.1,10.4-25,15.3-38.6,15.3
		c-28.5,0-40.1-18.7-40.1-32.9c0-21.1,19.7-30.3,31.4-30.3c19.2,0,30,10.7,41.4,25.3c10.2-11.5,18.5-24.9,24.8-36.6
		c3.5-6.6,6.2-13.1,8.4-17.9c3-6.8,4.8-10.5,4.8-10.5l-93.2-224.9l-32.4-12.5v-6.9h128.6v7l-33.8,12.7l57.1,154.2l2.5,0.1
		l51.6-150.6l-30.6-16.3v-7.1h90.7v6.9L1774.6,176.9z"/>
	<path class="st0" d="M1980.2,398.6c-29.1,0-48.9-4-75.8-14V315l10.2-1.1c18.2,32.2,41.9,69.1,78.6,69.1c19.8,0,39.4-11.6,39.4-40.7
		c0-20.6-14.3-32.7-58.7-49.6c-44.9-16.9-67.7-37.5-67.7-75.5c0-39.6,39.8-72.6,86.9-72.6c27.5,0,52.2,3.4,67.6,9.2l1.7,62.6
		l-10.1,2.8c-22.8-38.1-40.4-59-66.8-59c-23.8,0-35.8,15.1-35.8,35.7c0,14.7,10.6,30.3,51.2,45.7c57.6,21.2,76.3,41.2,76.3,77.2
		C2077.1,366.3,2036.9,398.6,1980.2,398.6z"/>
	<polygon class="st0" points="1814,227.9 1863.3,108.5 1919.2,108.5 1825.6,227.9 	"/>
</g>
</svg>
