<?xml version="1.0" encoding="utf-8"?>
<!-- Generator: Adobe Illustrator 23.0.0, SVG Export Plug-In . SVG Version: 6.00 Build 0)  -->
<svg version="1.1" id="Layer_1" xmlns="http://www.w3.org/2000/svg" xmlns:xlink="http://www.w3.org/1999/xlink" x="0px" y="0px"
	 viewBox="0 0 2048.9 500" style="enable-background:new 0 0 2048.9 500;" xml:space="preserve">
<style type="text/css">
	.st0{fill:#C1C7CF;}
</style>
<g>
	<path class="st0" d="M318.2,303c0,8.4-6.8,15.2-15.1,15.2H197c-8.3,0-15.1-6.8-15.1-15.2V197c0-8.3,6.8-15.1,15.1-15.1h106.1
		c8.3,0,15.1,6.8,15.1,15.1V303z M409.1,382.6c0,14.6-11.9,26.5-26.5,26.5H117.4c-14.6,0-26.5-11.9-26.5-26.5V117.4
		c0-14.6,11.9-26.5,26.5-26.5h265.2c14.6,0,26.5,11.9,26.5,26.5V382.6z M416.7,0H83.3C37.5,0,0,37.5,0,83.3v333.3
		C0,462.5,37.5,500,83.3,500h333.3c45.8,0,83.3-37.5,83.3-83.3V83.3C500,37.5,462.5,0,416.7,0"/>
	<path class="st0" d="M731.4,414.2c-29.6,0-58.1-11.4-78.2-31.5c-17.9-17.9-27.8-41.1-27.8-65.4h30c0,16.3,6.7,32,19,44.2
		c14.5,14.4,35.3,22.7,57,22.7h0.3c41.9,0,75.9-29.3,75.9-65.3c0-27-15-48.5-87.7-65.3c-29.6-6.8-49.5-16-62.8-28.8
		c-14.1-13.7-21-31.9-21-55.8c0-47,42.1-85.3,94-85.3c24.8,0,48.2,8.5,65.9,24.1c18.2,16,28.3,37.6,28.3,60.9h-30
		c0-30.3-28.8-54.9-64.2-54.9c-34.7,0-64,25.3-64,55.3c0,27.4,9.4,43.5,60.7,55.3c54.7,12.6,110.8,33.8,110.9,94.5
		c0,25.8-11.2,50-31.5,68c-19.9,17.6-46.4,27.3-74.4,27.3H731.4z"/>
	<path class="st0" d="M995.8,201.4c-53.9,0-92.8,40.2-92.8,93.7c0,53.1,39.8,92.1,92.8,92.1c51.5,0,90.8-41.9,90.8-92.5
		C1086.7,244.1,1047.3,201.4,995.8,201.4 M1085,499.6V368.1h-0.8c-19.5,29.8-53,45.2-88.3,45.2c-68,0-121.9-51-121.9-119.4
		c0-68,55.2-118.6,121.9-118.6c35.3,0,68.8,15.3,88.3,45.6h0.8v-39.8h29v318.5H1085z"/>
	<path class="st0" d="M1530.6,201.4c-53.9,0-92.8,40.2-92.8,93.7c0,53.1,39.8,92.1,92.8,92.1c51.4,0,90.8-41.9,90.8-92.5
		C1621.3,244.1,1582,201.4,1530.6,201.4 M1619.7,407.9v-39.8h-0.8c-19.9,29.8-53.1,45.2-88.3,45.2c-68,0-121.9-51-121.9-119.4
		c0-68,55.1-118.6,121.9-118.6c35.7,0,68.9,15,88.3,45.6h0.8v-39.8h29v226.8H1619.7z"/>
	<path class="st0" d="M1735.7,275.2v132.7h-29.1V181.1h29.1v32.8h0.8c12.5-29,34.4-36.5,63.9-38.6V206
		C1760.6,209.3,1735.7,234.6,1735.7,275.2"/>
	<path class="st0" d="M1930.3,201.4c-45.2,0-81.3,33.2-88.4,77.5H2019C2011.6,234.6,1975.9,201.4,1930.3,201.4 M2048.5,305.1H1842
		c2.1,44.8,43.6,82.1,88,82.1c34.8,0,68.8-19.9,81.3-53.5h30.6c-16.5,47.3-61.3,79.6-111.5,79.6c-65.5,0-118.2-53.5-118.2-118.6
		c0-64.7,52.7-119.4,117.8-119.4c66.4,0,119,56,119,121.5C2048.9,299.6,2048.5,302.1,2048.5,305.1"/>
	<path class="st0" d="M1339.3,408.2v-35.4h-0.8c-13.3,28-42.9,40.9-72.9,40.9c-29.6,0-59.6-10.4-78.3-34.1
		c-16.2-20.4-20-47.9-20-73.3V180.3h29.2v125.4c0,47.1,17.1,81.7,69.2,81.7c19.1,0,34.2-5,48.3-18.4c20-19.1,23.7-41.7,23.7-68.3
		V180.3h29.2v227.9H1339.3z"/>
</g>
</svg>
