<?xml version="1.0" encoding="utf-8"?>
<!-- Generator: Adobe Illustrator 23.0.0, SVG Export Plug-In . SVG Version: 6.00 Build 0)  -->
<svg version="1.1" id="Layer_1" xmlns="http://www.w3.org/2000/svg" xmlns:xlink="http://www.w3.org/1999/xlink" x="0px" y="0px"
	 viewBox="0 0 3106.1 500" style="enable-background:new 0 0 3106.1 500;" xml:space="preserve">
<style type="text/css">
	.st0{fill:#C1C7D0;}
</style>
<g>
	<path class="st0" d="M269.3,91.7c-10.3,0-19.5-1.1-29.8-2.3v173.1c0,4.6-1.1,5.7-3.4,6.9l-98.6,63c14.9,6.9,32.1,11.5,50.4,11.5
		c61.9,0,133-34.4,166.2-119.2c2.3-4.6,5.7-5.7,5.7,2.3v5.7c0,94-71.1,177.7-176.5,177.7C68.8,410.3,0,324.4,0,233.8
		c0-67.6,36.7-130.7,121.5-157c3.4-1.1,4.6,1.1,2.3,2.3c-36.7,28.7-57.3,75.6-57.3,122.6c0,50.4,19.5,99.7,64.2,126.1l25.2-18.3
		c8-6.9,10.3-12.6,10.3-21.8V73.4c-27.5-10.3-51.6-16-73.4-16c-30.9,0-58.5,13.8-84.8,47c-3.4,3.4-4.6,3.4-4.6,0
		C5.7,37.8,64.2,0,123.8,0c67.6,0,129.5,33.2,198.3,33.2c24.1,0,49.3-5.7,69.9-16c3.4-1.1,3.4,1.1,2.3,3.4
		C372.5,73.4,320.9,91.7,269.3,91.7z M589.1,405.7c-2.3,2.3-2.3,2.3-4.6,1.1l-47-42.4c-4.6-4.6-6.9-8-6.9-14.9V188
		c0-2.3,0-3.4-2.3-5.7l-16-13.8c-2.3-1.1-4.6-2.3-6.9-1.1l-29.8,14.9v151.3c0,2.3-1.1,4.6,2.3,6.9l13.8,11.5
		c3.4,3.4,9.2,6.9,14.9,4.6l4.6-2.3c5.7-2.3,6.9,1.1,3.4,4.6l-53.9,47c-2.3,2.3-3.4,2.3-4.6,1.1L408,364.5
		c-5.7-4.6-5.7-5.7-5.7-13.8V89.4c0-3.4,0-3.4-3.4-5.7l-5.7-5.7c-5.7-5.7-8-4.6-16-1.1l-11.5,5.7c-2.3,1.1-3.4-2.3-1.1-4.6
		l61.9-52.7c3.4-2.3,3.4-1.1,4.6,0l37.8,34.4c4.6,4.6,6.9,8,6.9,14.9v98.6l77.9-49.3c2.3-1.1,4.6-1.1,6.9,1.1l37.8,35.5
		c5.7,4.6,6.9,8,6.9,13.8v161.6c0,3.4,0,3.4,3.4,5.7l14.9,12.6c5.7,5.7,8,4.6,16,1.1l11.5-5.7c2.3-1.1,3.4,2.3,1.1,4.6L589.1,405.7z
		 M840.1,210.9l-104.3,65.3v50.4c0,4.6,1.1,6.9,4.6,8l33.2,17.2c5.7,3.4,16,5.7,21.8,2.3l30.9-18.3c5.7-3.4,9.2-1.1,6.9,1.1
		l-84.8,68.8c-2.3,2.3-1.1,1.1-3.4,0l-75.6-40.1c-5.7-3.4-8-4.6-8-12.6V167.3c0-3.4,1.1-4.6,4.6-5.7l123.8-40.1
		c2.3-1.1,3.4-1.1,4.6,1.1l47,82.5C842.4,207.4,842.4,209.7,840.1,210.9z M737,153.6l-1.1,1.1v114.6l41.3-34.4
		c2.3-2.3,2.3-3.4,1.1-4.6L737,153.6z M1283.7,91.7c-10.3,0-19.5-1.1-29.8-2.3v173.1c0,4.6-1.1,5.7-3.4,6.9l-98.6,63
		c14.9,6.9,32.1,11.5,50.4,11.5c61.9,0,133-34.4,166.2-119.2c2.3-4.6,5.7-5.7,5.7,2.3v5.7c0,94-71.1,177.7-176.5,177.7
		c-114.6,0-183.4-86-183.4-176.5c0-67.6,36.7-130.7,121.5-157c3.4-1.1,4.6,1.1,2.3,2.3c-36.7,28.7-57.3,75.6-57.3,122.6
		c0,50.4,19.5,99.7,64.2,126.1l25.2-17.2c9.2-5.7,10.3-12.6,10.3-21.8V73.4c-27.5-10.3-51.6-16-73.4-16c-30.9,0-58.5,13.8-84.8,47
		c-3.4,3.4-4.6,3.4-4.6,0c3.4-66.5,63-104.3,121.5-104.3c67.6,0,129.5,33.2,198.3,33.2c24.1,0,49.3-5.7,69.9-16
		c3.4-1.1,3.4,1.1,2.3,3.4C1386.8,73.4,1335.2,91.7,1283.7,91.7z M1581.7,210.9l-104.3,65.3v50.4c0,4.6,1.1,6.9,4.6,8l33.2,17.2
		c5.7,3.4,16,5.7,21.8,2.3l30.9-18.3c5.7-3.4,9.2-1.1,6.9,1.1l-84.8,68.8c-2.3,2.3-1.1,1.1-3.4,0l-75.6-40.1c-5.7-3.4-8-4.6-8-12.6
		V167.3c0-3.4,1.1-4.6,4.6-5.7l123.8-40.1c2.3-1.1,3.4-1.1,4.6,1.1l47,82.5C1584,207.4,1584,209.7,1581.7,210.9z M1478.5,153.6
		l-1.1,1.1v114.6l41.3-34.4c2.3-2.3,2.3-3.4,1.1-4.6L1478.5,153.6z M1664.2,405.7c-2.3,2.3-3.4,2.3-4.6,1.1l-48.1-42.4
		c-5.7-4.6-5.7-5.7-5.7-13.8V89.4c0-3.4,0-3.4-3.4-5.7l-5.7-5.7c-5.7-5.7-8-4.6-16-1.1l-11.5,5.7c-2.3,1.1-3.4-2.3-1.1-4.6
		l61.9-52.7c2.3-2.3,2.3-2.3,4.6-1.1l37.8,34.4c4.6,4.6,6.9,8,6.9,14.9v259c0,2.3-1.1,4.6,2.3,6.9l13.8,11.5
		c3.4,3.4,9.2,6.9,14.9,4.6l4.6-2.3c5.7-2.3,6.9,1.1,3.4,4.6L1664.2,405.7z M1909.5,210.9l-104.3,65.3v50.4c0,4.6,1.1,6.9,4.6,8
		l33.2,17.2c5.7,3.4,16,5.7,21.8,2.3l30.9-18.3c5.7-3.4,9.2-1.1,6.9,1.1l-84.8,68.8c-2.3,2.3-1.1,1.1-3.4,0l-75.6-40.1
		c-5.7-3.4-8-4.6-8-12.6V167.3c0-3.4,1.1-4.6,4.6-5.7l123.8-40.1c2.3-1.1,3.4-1.1,4.6,1.1l47,82.5
		C1911.7,207.4,1911.7,209.7,1909.5,210.9z M1806.3,153.6l-1.1,1.1v114.6l41.3-34.4c2.3-2.3,2.3-3.4,1.1-4.6L1806.3,153.6z
		 M2123.8,445.8l-64.2,52.7c-2.3,2.3-3.4,1.1-4.6,1.1c-34.4-22.9-60.7-33.2-90.5-33.2c-20.6,0-41.3,4.6-67.6,11.5
		c-2.3,1.1-3.4-1.1-2.3-3.4c27.5-41.3,61.9-55,94-55c47,0,91.7,28.7,108.9,40.1l2.3-1.1c4.6-10.3,6.9-20.6,6.9-29.8
		c0-29.8-25.2-53.9-55-69.9l-63,47c-2.3,2.3-4.6,1.1-5.7-1.1l-40.1-36.7c-5.7-5.7-6.9-8-6.9-13.8V182.2c0-3.4,2.3-3.4,3.4-4.6
		l135.2-56.2c3.4-2.3,5.7-2.3,6.9-1.1l37.8,37.8c4.6,4.6,6.9,8,6.9,12.6v159.3c25.2,18.3,35.5,36.7,35.5,55
		C2159.3,404.6,2149,425.2,2123.8,445.8z M2050.4,185.7c0-2.3-1.1-4.6-3.4-6.9l-21.8-21.8c-1.1-1.1-2.3-1.1-3.4,0l-13.8,6.9v168.5
		c0,9.2,2.3,10.3,11.5,19.5c5.7,4.6,8,6.9,13.8,6.9c4.6,0,12.6-3.4,17.2-6.9V185.7z M2315.2,198.3c-3.4,2.3-5.7,3.4-9.2,3.4
		s-5.7-1.1-9.2-3.4l-35.5-30.9l-3.4,3.4v163.9c0,3.4,0,4.6,2.3,5.7l9.2,8c10.3,8,12.6,9.2,22.9,5.7l6.9-3.4c4.6-2.3,5.7,1.1,3.4,3.4
		l-60.7,51.6c-2.3,2.3-3.4,2.3-4.6,1.1l-47-41.3c-5.7-4.6-6.9-6.9-6.9-12.6V183.4l-13.8-14.9c-1.1-1.1-2.3-1.1-3.4,0l-17.2,10.3
		c-5.7,3.4-6.9-1.1-3.4-4.6l60.7-50.4c2.3-2.3,3.4-2.3,4.6-1.1l41.3,40.1l40.1-40.1c2.3-2.3,4.6-2.3,6.9,0l30.9,28.7
		c5.7,5.7,9.2,8,12.6,8c2.3,0,5.7-1.1,9.2-3.4l8-5.7c5.7-3.4,8,2.3,4.6,4.6L2315.2,198.3z M2533,405.7c-2.3,2.3-3.4,2.3-4.6,1.1
		l-53.9-47l-63,47c-2.3,2.3-3.4,1.1-5.7-1.1l-40.1-36.7c-6.9-5.7-6.9-6.9-6.9-13.8V183.4c0-3.4,2.3-3.4,3.4-4.6l136.4-56.2
		c2.3-1.1,4.6-1.1,6.9,1.1l36.7,36.7c5.7,5.7,6.9,8,6.9,11.5v166.2l10.3,9.2c12.6,11.5,14.9,10.3,20.6,8l8-4.6
		c5.7-3.4,9.2-1.1,4.6,3.4L2533,405.7z M2474.5,186.8c0-3.4-1.1-5.7-3.4-8l-20.6-20.6c-1.1-1.1-1.1-1.1-3.4,0l-14.9,6.9v169.6
		c0,5.7,1.1,9.2,5.7,12.6l8,6.9c5.7,4.6,11.5,6.9,19.5,3.4l10.3-4.6V186.8H2474.5z M2809.2,362.2l-53.9,41.3
		c-5.7,4.6-6.9,3.4-13.8-1.1l-56.2-34.4v68.8l16,13.8c2.3,1.1,2.3,2.3,0,4.6l-47,42.4c-1.1,1.1-2.3,2.3-4.6,0l-51.6-41.3
		c-2.3-1.1-1.1-2.3,0-4.6l12.6-14.9V184.5l-12.6-16c-1.1-1.1-1.1-1.1-2.3,0l-17.2,9.2c-4.6,2.3-6.9-1.1-3.4-3.4l59.6-50.4
		c2.3-2.3,4.6-2.3,5.7-1.1l43.6,42.4l79.1-42.4c2.3-1.1,4.6-1.1,4.6,0l39,36.7c3.4,3.4,6.9,8,6.9,12.6V353
		C2813.8,357.6,2813.8,359.9,2809.2,362.2z M2739.3,188c0-3.4-1.1-6.9-3.4-9.2l-16-16c-1.1-1.1-2.3-1.1-4.6-1.1l-29.8,11.5v186.8
		l16,5.7c13.8,4.6,19.5,3.4,25.2-2.3l5.7-5.7c5.7-4.6,5.7-10.3,5.7-19.5V188H2739.3z M3041.8,405.7c-2.3,2.3-2.3,2.3-4.6,1.1
		l-47-41.3c-4.6-4.6-6.9-8-6.9-14.9V188c0-2.3,0-3.4-2.3-5.7l-16-13.8c-2.3-1.1-4.6-2.3-6.9-1.1l-29.8,13.8v151.3
		c0,2.3-1.1,4.6,2.3,6.9l13.8,11.5c3.4,3.4,9.2,6.9,14.9,4.6l4.6-2.3c5.7-2.3,6.9,1.1,3.4,4.6l-53.9,47c-2.3,2.3-3.4,2.3-4.6,1.1
		l-48.1-42.4c-5.7-4.6-5.7-5.7-5.7-13.8V89.4c0-3.4,0-3.4-3.4-5.7l-5.7-5.7c-5.7-5.7-8-4.6-16-1.1l-11.5,5.7
		c-2.3,1.1-3.4-2.3-1.1-4.6l61.9-52.7c2.3-2.3,2.3-2.3,4.6-1.1l37.8,34.4c4.6,4.6,6.9,8,6.9,14.9v98.6l77.9-49.3
		c2.3-1.1,4.6-1.1,6.9,1.1l37.8,35.5c5.7,4.6,6.9,8,6.9,13.8v161.6c0,3.4,0,3.4,3.4,5.7l14.9,12.6c5.7,5.7,8,4.6,16,1.1l11.5-5.7
		c2.3-1.1,3.4,2.3,1.1,4.6L3041.8,405.7z"/>
</g>
</svg>
