<?xml version="1.0" encoding="utf-8"?>
<!-- Generator: Adobe Illustrator 23.0.0, SVG Export Plug-In . SVG Version: 6.00 Build 0)  -->
<svg version="1.1" id="Layer_1" xmlns="http://www.w3.org/2000/svg" xmlns:xlink="http://www.w3.org/1999/xlink" x="0px" y="0px"
	 viewBox="0 0 612.1 500" style="enable-background:new 0 0 612.1 500;" xml:space="preserve">
<style type="text/css">
	.st0{fill:#C1C7D0;}
</style>
<path class="st0" d="M612.1,61.2c-22.5,10.2-45,16.3-73.5,18.3c26.5-14.3,45-40.8,55.2-69.4c-24.5,14.3-51,24.5-79.6,30.6
	C491.7,16.3,459,0,424.4,0c-69.4,0-126.6,55.2-126.6,126.6c0,10.2,2.1,18.3,4.1,28.5C197.9,151,106,102,42.7,26.5
	C30.5,44.8,26.5,67.3,26.5,89.8c0,42.9,22.5,81.6,55.2,104.1c-20.4,0-40.8-6.1-57.1-14.3v2.1c0,61.2,42.9,110.2,102,122.4
	c-12.3,2.1-20.4,4.1-32.7,4.1c-8.1,0-14.3,0-22.5-2.1c14.3,49,63.3,85.8,116.4,87.7c-42.9,34.8-97.9,53.1-157.2,53.1
	c-10.2,0-20.4,0-30.6-2.1C56.9,479.6,124.4,500,193.7,500c230.6,0,357.1-189.7,357.1-357.1c0-6.1,0-12.3,0-14.3
	C573.4,108.1,593.8,87.7,612.1,61.2z"/>
</svg>
